<?xml version="1.0" encoding="utf-8"?>
<!-- Generator: Adobe Illustrator 18.0.0, SVG Export Plug-In . SVG Version: 6.00 Build 0)  -->
<!DOCTYPE svg PUBLIC "-//W3C//DTD SVG 1.0//EN" "http://www.w3.org/TR/2001/REC-SVG-20010904/DTD/svg10.dtd">
<svg version="1.0" id="Layer_1" xmlns="http://www.w3.org/2000/svg" xmlns:xlink="http://www.w3.org/1999/xlink" x="0px" y="0px"
	 viewBox="0 0 64 64" enable-background="new 0 0 64 64" xml:space="preserve">
<g>
	<g>
		<path fill="#FAB43F" d="M32,1.4c16.9,0,30.7,13.7,30.7,30.6S48.9,62.7,32,62.7S1.4,48.9,1.4,32S15.1,1.4,32,1.4 M32,0.2
			C14.4,0.2,0.2,14.4,0.2,32S14.4,63.8,32,63.8S63.8,49.6,63.8,32S49.6,0.2,32,0.2L32,0.2z"/>
	</g>
	<g>
		<g>
			<path fill="#FAB43F" d="M11.7,33.1c-0.1-0.6,0.4-0.8,0.7-1.1c3-3,5.9-6,8.9-9c3.5-3.6,7.1-7.1,10.6-10.6c0.3-0.4,0.5-0.4,0.9,0
				c6.7,6.7,13.4,13.4,20,20c0.2,0.2,0.6,0.3,0.2,0.7c-0.7,0.5-1.6,0.7-2.4,1c-4.7,1.7-9.5,3.4-14.2,5c-1.1,0.4-2.3,0.8-3.4,1.2
				c-0.3,0.1-0.6,0.2-0.9,0.2c-3.7-1.3-7.4-2.6-11.1-3.9c-2.7-1-5.4-1.9-8.1-2.8C12.6,33.5,12.1,33.4,11.7,33.1z"/>
			<path fill="#F7C575" d="M32.2,40.3c1.2-0.2,2.2-0.7,3.3-1.1c2.6-0.9,5.3-1.9,7.9-2.8c3-1.1,6-2.1,9-3.2c0.2-0.1,0.5-0.1,0.8-0.2
				c-1.1,1.3-2.3,2.4-3.5,3.6c-5.4,5.4-10.8,10.9-16.3,16.3c-0.2,0.2-0.5,0.5-0.8,0.7c-0.3,0-0.3-0.3-0.3-0.5
				c-0.1-0.3-0.1-0.7-0.1-1c0-3.7,0-7.5,0-11.2C32.2,40.7,32.1,40.5,32.2,40.3z"/>
			<path fill="#FFCC7B" d="M32.2,40.3c0.2,0.3,0.1,0.6,0.1,0.9c0,3.7,0,7.3,0,11c0,0.5,0.1,0.9,0.2,1.4c-0.4,0.3-0.4-0.1-0.6-0.3
				c-1.9-1.8-3.7-3.7-5.5-5.5c-4.8-4.7-9.5-9.5-14.3-14.2c-0.2-0.2-0.3-0.4-0.5-0.5c1.1,0.2,2.2,0.7,3.2,1.1c5.7,2,11.4,4,17.1,6
				C32.1,40.2,32.2,40.3,32.2,40.3z"/>
			<path fill="#F3F3F3" d="M32.1,18.3c0.3-0.5,0.5-0.2,0.7,0.1c2.5,2.5,5,5,7.5,7.5c2.1,2.1,4.3,4.3,6.4,6.4
				c0.2,0.2,0.4,0.4,0.5,0.6c-0.1,0.2-0.3,0.1-0.4,0.1c-2.6,0-5.2,0-7.8,0c-0.4,0-0.7-0.1-1-0.4c-1.7-1.7-3.4-3.4-5.1-5.1
				c-0.2-0.2-0.4-0.3-0.5-0.5c-0.2-0.2-0.2-0.5-0.2-0.8C32.1,23.5,32.2,20.9,32.1,18.3z"/>
			<path fill="#FCFDFF" d="M32.1,18.3c0.3,0.2,0.2,0.5,0.2,0.8c0,2.6,0,5.3,0,7.9c-1,1-2,2.1-3,3.1c-0.7,0.7-1.5,1.4-2.1,2.2
				c-0.5,0.6-1.1,0.8-1.9,0.8c-2.3,0-4.6,0-6.9,0c-0.2,0-0.5,0-0.7,0c0-0.3,0.2-0.4,0.3-0.6c4.6-4.7,9.3-9.3,13.9-14
				C32,18.4,32.1,18.3,32.1,18.3z"/>
		</g>
	</g>
</g>
</svg>
