<svg id="Layer_1" data-name="Layer 1" xmlns="http://www.w3.org/2000/svg" viewBox="0 0 697.44 173"><defs><style>.cls-1{fill:#101c31;}</style></defs><title>Artboard 19</title><path class="cls-1" d="M187.06,152.64H46.13A23.19,23.19,0,0,1,23,129.48a50.42,50.42,0,0,1,34.68-48A283.73,283.73,0,0,0,90,68.33L124.63,52a128,128,0,0,1,54.19-12.12h51v7.4h-51a120.55,120.55,0,0,0-51,11.41L93.13,75A293.11,293.11,0,0,1,60,88.52a43,43,0,0,0-29.59,41,15.78,15.78,0,0,0,15.76,15.77H187.06Z"/><rect class="cls-1" x="26.67" y="121.46" width="207.06" height="7.4"/><rect class="cls-1" x="144.84" y="16.93" width="54.3" height="7.4"/><rect class="cls-1" x="168.4" y="79.08" width="62.44" height="7.4"/><rect class="cls-1" x="64.63" y="39.91" width="42.56" height="7.4"/><rect class="cls-1" x="217.21" y="16.93" width="12.59" height="7.4"/><rect class="cls-1" x="244.85" y="79.08" width="10.28" height="7.4"/><path class="cls-1" d="M336,131.45,292.23,70.89v60.56h-8.57V61.11h11L338,121V61.11h8.57v70.34Z"/><path class="cls-1" d="M391.36,132.11c-26.71,0-33.3-16.49-33.3-35.83s6.81-35.83,33.3-35.83c26.82,0,33.42,16.48,33.42,35.94C424.78,115.62,418.18,132.11,391.36,132.11Zm0-64.52c-19.78,0-24.62,12.75-24.62,28.69S371.58,125,391.36,125c20,0,24.73-12.75,24.73-28.57C416.09,80.34,411.37,67.59,391.36,67.59Z"/><path class="cls-1" d="M433.12,131.45v-8.36l41.55-54.95H433.23v-7h51V69L441.7,124.41h43.74v7Z"/><path class="cls-1" d="M526.87,132.11c-26.71,0-33.3-16.49-33.3-35.83s6.81-35.83,33.3-35.83c26.82,0,33.41,16.48,33.41,35.94C560.28,115.62,553.69,132.11,526.87,132.11Zm0-64.52c-19.78,0-24.62,12.75-24.62,28.69S507.09,125,526.87,125c20,0,24.73-12.75,24.73-28.57C551.6,80.34,546.87,67.59,526.87,67.59Z"/><path class="cls-1" d="M643.59,131.45V71.66l-27.36,59.79h-8.47L580.29,71.66v59.79h-8.58V61.11h12.86l27.48,61.1,27.15-61.1h13.07v70.34Z"/><path class="cls-1" d="M665.9,131.45V61.11h8.57v70.34Z"/></svg>