<?xml version="1.0" encoding="utf-8"?>
<!-- Generator: Adobe Illustrator 18.0.0, SVG Export Plug-In . SVG Version: 6.00 Build 0)  -->
<!DOCTYPE svg PUBLIC "-//W3C//DTD SVG 1.1//EN" "http://www.w3.org/Graphics/SVG/1.1/DTD/svg11.dtd">
<svg version="1.1" id="Layer_1" xmlns="http://www.w3.org/2000/svg" xmlns:xlink="http://www.w3.org/1999/xlink" x="0px" y="0px"
	 viewBox="0 0 1080 1080" enable-background="new 0 0 1080 1080" xml:space="preserve">
<g>
	<path fill="#F73C52" d="M528.5,205.2c184.9,0,334.8,149.9,334.8,334.8S713.4,874.8,528.5,874.8S193.7,724.9,193.7,540
		S343.6,205.2,528.5,205.2z"/>
	<g>
		<path fill="#FFFFFF" d="M643.3,420.4h-35v228.3h-46.8V618c-5.8,10.7-14.2,19-25.1,24.9c-10.9,6-23.3,8.9-37.3,8.9
			c-16.5,0-31.2-4.2-44.1-12.6c-12.9-8.4-23-20.2-30.3-35.6c-7.2-15.3-10.8-32.9-10.8-52.7c0-19.8,3.5-37.2,10.7-52.1
			c7.1-15,17.1-26.6,30.1-34.8c12.9-8.2,27.8-12.4,44.5-12.4c13.7,0,25.9,2.9,36.7,8.6s19.1,13.8,24.9,24.2v-63.9h-57v-33.9h57
			v-41.5h47.6v41.5h35V420.4z M548.3,598.2c8.8-10.9,13.1-26.4,13.1-46.4c0-20-4.3-35.5-12.9-46.4c-8.6-10.9-20.8-16.4-36.5-16.4
			c-16,0-28.4,5.4-37.1,16.2c-8.8,10.8-13.1,26.1-13.1,45.9c0,20,4.4,35.7,13.1,46.8c8.8,11.2,21,16.7,36.7,16.7
			C527.3,614.5,539.6,609.1,548.3,598.2z"/>
	</g>
	<rect x="413.8" y="694.8" fill="#FFFFFF" width="207.2" height="29.1"/>
</g>
</svg>
