<svg xmlns="http://www.w3.org/2000/svg" xmlns:xlink="http://www.w3.org/1999/xlink" viewBox="0 0 512 512"><defs><style>.cls-1{isolation:isolate;}.cls-2{fill:url(#linear-gradient);}.cls-3{fill:url(#linear-gradient-2);}.cls-4{fill:url(#linear-gradient-3);}.cls-10,.cls-5,.cls-8{mix-blend-mode:multiply;}.cls-5{fill:url(#linear-gradient-4);}.cls-6{fill:url(#linear-gradient-5);}.cls-7{mix-blend-mode:screen;fill:url(#linear-gradient-6);}.cls-9{fill:#d8e7fd;}.cls-10{fill:url(#linear-gradient-7);}.cls-11{fill:url(#linear-gradient-8);}.cls-12{fill:url(#linear-gradient-9);}.cls-13{fill:url(#linear-gradient-10);}</style><linearGradient id="linear-gradient" x1="817.07" y1="-181.11" x2="911.26" y2="-17.97" gradientUnits="userSpaceOnUse"><stop offset="0" stop-color="#fff"/><stop offset="1" stop-color="#d8e7fd"/></linearGradient><linearGradient id="linear-gradient-2" x1="97.63" y1="-76.02" x2="1668.26" y2="-76.02" gradientUnits="userSpaceOnUse"><stop offset="0" stop-color="#3b7ef8"/><stop offset="1" stop-color="#2e2288"/></linearGradient><linearGradient id="linear-gradient-3" x1="101.38" y1="-55.86" x2="1675.31" y2="-55.86" xlink:href="#linear-gradient-2"/><linearGradient id="linear-gradient-4" x1="102.82" y1="-55.86" x2="1675.31" y2="-55.86" xlink:href="#linear-gradient-2"/><linearGradient id="linear-gradient-5" x1="125.8" y1="279.93" x2="284.44" y2="279.93" xlink:href="#linear-gradient-2"/><linearGradient id="linear-gradient-6" x1="128.29" y1="287.51" x2="232.18" y2="287.51" xlink:href="#linear-gradient-2"/><linearGradient id="linear-gradient-7" x1="302.08" y1="251.96" x2="449.21" y2="251.96" xlink:href="#linear-gradient-2"/><linearGradient id="linear-gradient-8" x1="469.89" y1="189.53" x2="492.24" y2="189.53" xlink:href="#linear-gradient"/><linearGradient id="linear-gradient-9" x1="484.23" y1="189.91" x2="488.68" y2="189.91" gradientTransform="translate(414.04 -327.25) rotate(60.7)" xlink:href="#linear-gradient"/><linearGradient id="linear-gradient-10" x1="403.34" y1="72.19" x2="523.75" y2="192.6" xlink:href="#linear-gradient-2"/></defs><title>Artboard 5</title><g class="cls-1"><g id="Bullet_Train" data-name="Bullet Train"><path class="cls-2" d="M1669.58-492.55c-9,9-19.28,19.15-27.84,27.36-20.23,19.37-50,37.53-88,58.12-23.89,12.92-126,74-207.63,122.8-.8.47-1.59,1-2.39,1.42-47.38,28.34-87.43,52.28-100.5,59.83-20.82,12-177.75,105.23-318.79,188.74l-2.44,1.44c-99.75,59-191.1,113-220.11,129.48C668,115.87,584.77,165.27,501.53,214.83L499,216.37C410.11,269.27,321.85,322,294.34,338.2c-53.54,31.49-156,57.48-172.51,61.76-6.39,1.66-11.33,1.6-15,.19a12.34,12.34,0,0,1-5.43-4c-2.37-3.05-3.55-7.33-3.75-12.43-.44-11,3.6-25.88,9.62-40.36,4.76-11.44,11.32-26.4,18.55-42.14,9.48-20.68,20.13-42.72,29.33-59.92a0,0,0,0,0,0,0c3.07-5.74,6-10.93,8.63-15.36,16.65-27.85,74.36-56.91,92.2-67.2,8.93-5.15,78.8-46.57,149-88.18h0l6.23-3.69C479.29,26.51,546-13,556.09-18.69c20.82-11.81,224.27-132.89,243.3-143.79,4-2.29,14.51-8.43,28.82-16.81l6.28-3.69c55.45-32.55,155.64-91.67,171.92-101.8,21.41-13.32,167.75-100.5,190.36-113.82,7.78-4.59,27.71-16.36,52.48-30.95l6.17-3.64c46.48-27.38,107.06-63,137.66-80.44,48.78-27.85,78.52-41.17,102.32-41.17,7.29,0,19.93,1,34.58,2.62,14.42,1.57,30.81,3.68,45.93,5.92h0c19.66,2.92,37.18,6,45.58,8.41,7.72,2.17,19,5.78,30.28,9.5,3.5,1.15,7,2.31,10.37,3.44a18.88,18.88,0,0,1,6.08,3.35l0,0a19.16,19.16,0,0,1,5.94,8.6A19.57,19.57,0,0,1,1669.58-492.55Z"/><path class="cls-3" d="M1668.26-521.53S1613-531.18,1582.84-532s-94.22,25.84-126.63,44.81-286.6,169.11-329,194.14-487,287.77-523.1,310S318.93,187.25,286.81,205.82s-91.22,46.81-122.15,99.29c-21.32,36.17-45.12,74.64-57.85,95a12.34,12.34,0,0,1-5.43-4c-2.37-3.05-3.55-7.33-3.75-12.43,15.8-30,50.49-95.72,59.89-113.31,12.29-23,39.66-59.83,76.94-82.39S578.66-15.36,614-36.35,985.2-256.72,1020.89-278.12s306.55-181.52,341.85-202,108.2-63,128.49-68.46c7-1.87,22.08-3,38.75-3.64,14.42,1.57,30.81,3.68,45.93,5.92h0c19.66,2.92,37.18,6,45.58,8.41,7.72,2.17,19,5.78,30.28,9.5,3.5,1.15,7,2.31,10.37,3.44a18.88,18.88,0,0,1,6.08,3.35Z"/><path class="cls-4" d="M1669.58-492.55c-9,9-19.28,19.15-27.84,27.36-20.23,19.37-50,37.53-88,58.12s-274.83,163.46-310.52,184S772,56.68,701.83,96.64s-354,210.08-407.49,241.56-156,57.48-172.51,61.76c-9.06,2.35-15.18,1.24-19-2.27a11.75,11.75,0,0,1-1.44-1.55c29.84-18.17,95-58.82,118.31-73.68,27.06-17.25,81.49-51.16,107.67-66.9S480.84,166,502,152.94,725.33,20.36,745.56,8.25s193.33-114.43,224.56-133.5,220.4-130.47,246-145,186.2-109.88,214.16-126.83,68.41-40.26,93.1-50.86c17.85-7.66,104.36-45,150.84-65A19.57,19.57,0,0,1,1669.58-492.55Z"/><path class="cls-5" d="M1669.58-492.55c-9,9-19.28,19.15-27.84,27.36-20.23,19.37-50,37.53-88,58.12s-274.83,163.46-310.52,184S772,56.68,701.83,96.64s-354,210.08-407.49,241.56-156,57.48-172.51,61.76c-9.06,2.35-15.18,1.24-19-2.27,7.81.91,22.58-.47,48.75-12,45.51-20,119.57-47.22,172.81-79.31S563.52,164.75,595.05,146.28,770.84,42.15,804.75,22.17,1051.62-124.34,1080.47-141,1297-268.43,1325.56-285.08s200.18-117.45,233.19-136.22,48.88-29.36,59.39-37.23,43-29.88,48.58-34.91,9-10.1,7.48-19.49A19.57,19.57,0,0,1,1669.58-492.55Z"/><path class="cls-6" d="M283.34,258c-3.27,9.38-16.06,21.19-37.18,33.6s-58,33-75.85,34.51c-15,1.27-41.19-6.24-44.51-24.89,9.48-20.68,20.13-42.72,29.33-59.92-.2.88-5.41,24.57,22,24.57,28,0,42.54-3.94,61.57-14.23,10.45-5.65,22.33-12.12,30.93-16.81A9.78,9.78,0,0,1,284,242.49C284.61,248,284.73,254,283.34,258Z"/><path class="cls-7" d="M232.18,257.66c-9.14,17.63-26.08,46.06-47.32,62.25-6.84,2.47-11.54,3.51-14.75,3.78-1,.08-2.08.12-3.19.12a55.57,55.57,0,0,1-24.06-5.75c-5.68-2.92-12.74-8.13-14.57-16.54,8.53-18.59,17-36.06,24.33-50.32a20,20,0,0,0,3.87,9c4.18,5.37,11.13,8.1,20.66,8.1C200.78,268.28,215.38,265.6,232.18,257.66Z"/><g class="cls-8"><path class="cls-9" d="M379,217.17l-40.67,24.17c-4.76-23.41-22.21-39.15-22.21-39.15l40.62-24.3A77.38,77.38,0,0,1,379,217.17Z"/><path class="cls-9" d="M423.76,190.57l-40.44,24a81.92,81.92,0,0,0-22.24-39.29l40.15-24A77.32,77.32,0,0,1,423.76,190.57Z"/><path class="cls-9" d="M468.05,164.24l-40,23.77a81.71,81.71,0,0,0-22.5-39.29l39.49-23.63C463.29,136.8,468.05,164.24,468.05,164.24Z"/><path class="cls-9" d="M556.56,111.56,516.15,135.5c-4.76-23.41-22.21-39.15-22.21-39.15L534.2,72.46A77.4,77.4,0,0,1,556.56,111.56Z"/></g><path class="cls-10" d="M302.08,284.69v20.5a5.35,5.35,0,0,0,8,4.73l132.54-77.26a13.36,13.36,0,0,0,6.58-11.56V198.73a5.35,5.35,0,0,0-8.06-4.7L308.54,273.2A13.37,13.37,0,0,0,302.08,284.69Z"/><path class="cls-11" d="M488.66,170.61a2.41,2.41,0,0,1,2.39,2.43v20.51a8.53,8.53,0,0,1-4.15,7.33l-12.25,7.23a2.31,2.31,0,0,1-1.19.34,2.41,2.41,0,0,1-2.38-2.43V185.77a8.54,8.54,0,0,1,4-7.26L487.44,171a2.33,2.33,0,0,1,1.22-.35m0-1.21a3.51,3.51,0,0,0-1.83.53l-12.33,7.54a9.72,9.72,0,0,0-4.61,8.3V206a3.61,3.61,0,0,0,3.57,3.64,3.52,3.52,0,0,0,1.79-.5l12.25-7.23a9.73,9.73,0,0,0,4.74-8.38V173a3.61,3.61,0,0,0-3.58-3.64Z"/><ellipse class="cls-12" cx="486.45" cy="189.92" rx="3.18" ry="1.83" transform="translate(82.79 521.22) rotate(-60.7)"/><g class="cls-8"><path class="cls-13" d="M504.74,197.16a133.57,133.57,0,0,1-2.32,14.26c-.26,1.15-.56,2.27-.89,3.41L499,216.37c.15-1.79.26-3.59.29-5.38.1-4.65-.12-9.3-.46-14,.19-9.31,0-18.76,0-28.19l0-14.15v-1.77l-.05-1.7c0-1.14,0-2.26-.15-3.39a62.32,62.32,0,0,0-.81-6.69,55.74,55.74,0,0,0-10.55-24.31c-5.38-7.14-12.35-13-19.84-18.23s-15.56-9.71-23.64-14.36l-6.05-3.51-2.94-1.6c-.5-.27-1-.56-1.48-.8l-1.52-.69a59.65,59.65,0,0,0-12.54-4.32,53.49,53.49,0,0,0-13.09-2.73L405,70.52l6.23-3.69a55,55,0,0,1,9.22.51,18.19,18.19,0,0,1,3.53.93c1.15.36,2.33.67,3.46,1.11l3.42,1.26c1.1.48,2.2,1,3.3,1.49l1.65.75c.54.26,1.07.57,1.6.85l3.18,1.73,6,3.5c8,4.63,16.24,9.2,24.07,14.62s15.27,11.69,21.2,19.55a61.88,61.88,0,0,1,11.68,26.93,64.87,64.87,0,0,1,.89,7.33c.12,1.23.14,2.45.17,3.68l.05,1.84v1.77l.05,14.11C504.76,178.23,504.93,187.64,504.74,197.16Z"/></g></g></g></svg>