<?xml version="1.0" encoding="utf-8"?>
<!-- Generator: Adobe Illustrator 18.0.0, SVG Export Plug-In . SVG Version: 6.00 Build 0)  -->
<!DOCTYPE svg PUBLIC "-//W3C//DTD SVG 1.1//EN" "http://www.w3.org/Graphics/SVG/1.1/DTD/svg11.dtd">
<svg version="1.1" id="Layer_1" xmlns="http://www.w3.org/2000/svg" xmlns:xlink="http://www.w3.org/1999/xlink" x="0px" y="0px"
	 viewBox="0 0 12189 7653.5" enable-background="new 0 0 12189 7653.5" xml:space="preserve">
<g>
	<path fill="#F73C52" d="M5965,47.8c2087,0,3778.9,1691.9,3778.9,3778.9S8052,7605.7,5965,7605.7S2186.1,5913.8,2186.1,3826.8
		S3878,47.8,5965,47.8z"/>
	<g>
		<g>
			<path fill="#FFFFFF" d="M7336,5731.8c-71.7-47.8-118.2-80.9-270.9-204.4c-334.8-239.2-693.6-502.3-1028.4-741.5
				c-47.9-23.9-71.7-23.9-95.6,0c-406.6,287-789.2,574-1195.9,861c-23.9,23.9,0,0-95.6,71.8c30.3-87.3,40.2-113.3,71.7-239.2
				c143.5-430.5,287.1-861,406.6-1267.6c23.9-47.8,0-71.8-47.9-119.6c-406.6-287-813.2-574-1195.9-861c0,0-23.9-23.9-47.9-47.8
				c23.9,0,47.9,0,71.7,0c502.3,0,1004.6,0,1482.9,0c47.9,0,47.9-23.9,71.7-47.8c119.6-358.8,239.2-717.5,358.8-1076.3
				c47.9-119.6,71.7-239.2,119.6-382.7c0,0,0,0,23.9-47.8c23.9,47.8,23.9,119.6,47.9,167.4c143.5,430.5,287.1,884.9,430.5,1315.5
				c0,47.8,23.9,47.8,71.7,47.8c478.3,0,932.8,0,1411.1,0c47.9,0,95.6,0,143.5,0c-23.9,23.9-47.9,23.9-47.9,47.8
				c-406.6,287-789.2,574-1195.9,861c-47.9,23.9-47.9,47.8-23.9,95.6c167.5,478.3,310.9,956.7,478.3,1435
				C7318.2,5681.1,7336,5731.8,7336,5731.8z"/>
		</g>
	</g>
</g>
</svg>
