<?xml version="1.0" encoding="utf-8"?>
<!-- Generator: Adobe Illustrator 18.0.0, SVG Export Plug-In . SVG Version: 6.00 Build 0)  -->
<!DOCTYPE svg PUBLIC "-//W3C//DTD SVG 1.0//EN" "http://www.w3.org/TR/2001/REC-SVG-20010904/DTD/svg10.dtd">
<svg version="1.0" id="Layer_1" xmlns="http://www.w3.org/2000/svg" xmlns:xlink="http://www.w3.org/1999/xlink" x="0px" y="0px"
	 viewBox="0 0 64 64" enable-background="new 0 0 64 64" xml:space="preserve">
<g>
	<circle fill="#2F2F7C" cx="32" cy="32" r="31.9"/>
	<g>
		<g>
			<path fill="#FFFFFF" d="M12.4,44.1c3.5,3.2,7.5,5.5,12.2,6.5c9.5,2.1,20.5-3.4,24.1-12.1c2.8-6.8,1.6-13-3-18.6
				c-0.3-0.3-0.5-0.7-0.8-1c0.5-0.2,0.8,0.1,1.1,0.3c6,3.6,9.3,11.2,8.6,18.2c-1.1,10-11.3,17.3-20,17.9c-6.3,0.4-11.9-1-16.9-4.8
				c-2.2-1.7-4.1-3.7-5.4-6.1C12.3,44.3,12.4,44.2,12.4,44.1z"/>
			<path fill="#FFFFFF" d="M51.8,19.1c-3.5-3.2-7.5-5.5-12.2-6.5c-9.5-2.1-20.5,3.4-24.1,12.1c-2.8,6.8-1.6,13,3,18.6
				c0.3,0.3,0.5,0.7,0.8,1c-0.5,0.2-0.8-0.1-1.1-0.3c-6-3.6-9.3-11.2-8.6-18.2C10.8,15.8,21,8.5,29.7,8c6.3-0.4,11.9,1,16.9,4.8
				c2.2,1.7,4.1,3.7,5.4,6.1C52,19,51.9,19.1,51.8,19.1z"/>
			<path fill="#FFFFFF" d="M29.4,34.8c0-2.3-0.1-4.6,0-6.9c0.1-1.3-0.4-1.5-1.5-1.5c-1.8,0.1-3.6,0-5.4,0c-1.2,0-1.1-0.4-0.6-1.2
				c1.3-2.2,3.4-3.1,5.8-3.3c4.6-0.4,9.3,0,13.9-0.1c0.9,0,0.8,0.4,0.5,1c-1.1,2.3-3,3.4-5.5,3.6c-2.2,0.2-2.2,0.2-2.2,2.4
				c0,2.8,0,5.6,0,8.4c0,2.6-1.6,4.9-4,5.9c-0.8,0.3-1,0.2-1-0.7C29.4,39.8,29.4,37.3,29.4,34.8z"/>
			<path fill="#FFFFFF" d="M12.2,44.3c0-0.1,0-0.2-0.1-0.3c0.1,0,0.2,0.1,0.3,0.1C12.4,44.2,12.3,44.3,12.2,44.3z"/>
		</g>
	</g>
</g>
</svg>
