<svg id="Layer_1" enable-background="new 0 0 512.003 512.003" height="512" viewBox="0 0 512.003 512.003" width="512" xmlns="http://www.w3.org/2000/svg"><path d="m384.003 159.985c0 91.383-103.358 143.411-176.63 91.48-60.257-42.551-63.758-131.107-6.27-178.19 73.503-60.143 182.9-6.717 182.9 86.71z" fill="#ffe773"/><path d="m358.793 89.195c-72.88-59.543-182.79-7.579-182.79 86.79 0 26.86 9.45 51.51 25.22 70.8-54.815-44.728-55.065-128.51-.12-173.51 47.526-38.888 118.219-32.433 157.69 15.92z" fill="#ffec8f"/><path d="m372.603 110.695c-24.497 10.42-50.451 17.708-76.185 24.922-25.205 7.065-52.385-.385-70.144-19.616-11.099-12.02-24.798-21.601-40.211-27.846-43.019 51.4-32.54 132.086 29.186 168.404 15.655 9.22 33.431 14.54 51.984 15.316 83.709 4.236 142.965-84.599 105.37-161.18z" fill="#e2cb6a"/><path d="m224.003 175.985c0 65.72-75.407 103.614-128.04 63.96-22.85-17.176-34.935-45.165-31.34-74.01 6.657-53.043 62.702-84.516 111.29-63.33 28.757 12.531 48.09 41.043 48.09 73.38z" fill="#ffe773"/><path d="m207.963 127.945c-13.531-10.135-30.148-15.96-47.96-15.96-66.466 0-102.992 76.024-64.04 127.96-19.41-14.59-31.96-37.81-31.96-63.96 0-44.18 35.82-80 80-80 25.77 0 49.137 12.238 63.96 31.96z" fill="#ffec8f"/><path d="m224.003 175.985c0 65.72-75.407 103.614-128.04 63.96-22.85-17.176-34.935-45.165-31.34-74.01 6.84-1.52 14.57-1.45 21.01-2.22 70.56-8.42 90.424-10.054 131.26-20.74 4.57 10.06 7.11 21.24 7.11 33.01z" fill="#efd66c"/><path d="m496.003 335.985c-16.94 10.42-34.84 19.71-53.37 27.99l-89.26 31.65c-96.788 26.821-204.883 36.36-305.37 36.36l-32-256c65.338 5.966 172.884 1.152 262.64-19.12 63.86-14.43 129.72-38.19 185.36-76.88z" fill="#56d656"/><path d="m496.003 335.985c-16.94 10.42-34.84 19.71-53.37 27.99l-89.26 31.65c-33.38 9.25-67.14 16.16-99.73 21.32 5.13-12.91 8.64-26.62 11.76-36.21 35.139-108.248 16.23-190.155 13.24-223.87 63.86-14.43 129.72-38.19 185.36-76.88z" fill="#4ec64e"/><path d="m54.853 431.975c-2.39.01-4.67.01-6.85.01l-32-256s47.97 4.38 116.51.6c1.683 17.107-13.649 53.661-77.66 255.39z" fill="#6de26d"/><path d="m464.003 407.985c0 37.777-36.596 64.61-72.6 53.5-22.764-7.035-39.4-28.303-39.4-53.5 0-41.913 44.17-68.457 80.87-50.18 18.464 9.17 31.13 28.209 31.13 50.18z" fill="#ffe773"/><path d="m464.003 407.985c0 37.777-36.596 64.61-72.6 53.5l41.47-103.68c18.45 9.15 31.13 28.18 31.13 50.18z" fill="#efd66c"/><path d="m454.783 377.215c-8.766-5.844-19.471-9.23-30.78-9.23-45.026 0-70.945 50.195-46.79 86.78-15.19-10.01-25.21-27.22-25.21-46.78 0-30.93 25.07-56 56-56 19.356 0 36.723 9.903 46.78 25.23z" fill="#ffec8f"/><path d="m511.879 334.001-32-256c-1.49-11.923-15.142-18.014-25.011-11.152-21.179 14.728-43.97 27.167-67.481 37.697-41.379-86.4-160.198-98.289-217.915-21.161-32.212-8.805-68.006-.628-93.352 24.719-6.248 6.248-6.248 16.379 0 22.627s16.378 6.249 22.627 0c25.011-25.011 65.495-25.014 90.509 0 6.246 6.247 16.378 6.25 22.627 0 6.249-6.249 6.249-16.379 0-22.627-3.965-3.965-8.216-7.541-12.707-10.708 43.997-51.518 127.693-42.184 158.561 19.327-64.376 24.146-131.358 35.447-183.91 40.651-87.828 8.699-155.701 2.739-156.373 2.678-10.166-.933-18.595 7.795-17.33 17.918l32 256c1.001 8.007 7.807 14.016 15.876 14.016 107.869 0 204.793-10.564 288.531-31.403 4.265 35.661 34.678 63.403 71.469 63.403 56.766 0 91.138-63.004 60.704-110.643 12.513-6.234 24.464-12.831 35.679-19.729 5.344-3.287 8.274-9.39 7.496-15.613zm-477.602-140.818c77.94 3.713 168.609-2.708 248.812-20.931-3.185 3.535-4.778 8.438-3.888 13.487l3.353 19.016c-38.583 21.208-28.222 76.434 12.63 85.49l25.962 5.755c9.797 2.173 15.155 13.64 9.146 22.192-2.37 3.385-7.995 5.632-11.971 6.742-1.609.422 1.391-.147-34.713 6.242l-63.857-108.166c-7.499-12.701-26.806-9.296-29.507 5.203l-25.044 134.391c-1.619 8.687 4.111 17.042 12.798 18.66 8.687 1.622 17.042-4.115 18.66-12.798l4.23-22.697 49.066-8.652 11.738 19.882c3.393 5.746 9.999 8.783 16.566 7.621l31.501-5.574 2.782 15.777c1.02 5.782 5.026 10.283 10.152 12.205-76.132 18.334-163.571 28.041-260.575 28.895zm198.303 114.504-25.431 4.484 6.737-36.151zm107.751 74.89c.762-.871.747-1.133.351-.092-.116.031-.234.061-.351.092zm67.672 65.408c-22.056 0-40-17.944-40-40s17.944-40 40-40 40 17.944 40 40-17.945 40-40 40zm36.07-102.274c-35.522-20.656-81.155-7.293-100.079 29.369.76-3.92.301-4.456-3.295-24.848 38.759-21.325 28.027-76.461-12.627-85.474l-25.962-5.755c-9.803-2.174-15.146-13.632-9.146-22.192 5.096-7.275 24.24-10.65 31.514-5.557 7.239 5.068 17.216 3.31 22.284-3.929 5.068-7.238 3.31-17.215-3.929-22.284-8.045-5.633-18.468-8.231-29.177-8.176l-2.942-16.683c-1.011-5.738-4.97-10.203-10.04-12.15 52.515-13.295 104.271-32.703 150.617-60.741l27.539 220.315c-10.953 6.351-22.594 12.408-34.757 18.105z"/></svg>