<?xml version="1.0" encoding="utf-8"?>
<!-- Generator: Adobe Illustrator 18.0.0, SVG Export Plug-In . SVG Version: 6.00 Build 0)  -->
<!DOCTYPE svg PUBLIC "-//W3C//DTD SVG 1.1//EN" "http://www.w3.org/Graphics/SVG/1.1/DTD/svg11.dtd">
<svg version="1.1" id="Layer_1" xmlns:serif="http://www.serif.com/"
	 xmlns="http://www.w3.org/2000/svg" xmlns:xlink="http://www.w3.org/1999/xlink" x="0px" y="0px"
	 viewBox="138.4 122.1 2565.4 2565.4" enable-background="new 138.4 122.1 2565.4 2565.4" xml:space="preserve">
<g>
	<g transform="matrix(1.03804,0,0,1.03804,-19.1739,-16.0598)">
		<g id="Layer1">
			<path d="M1387.4,139.9c678.7,0,1228.8,550.2,1228.8,1228.8s-550.2,1228.8-1228.8,1228.8S158.6,2047.4,158.6,1368.8
				S708.8,139.9,1387.4,139.9z"/>
		</g>
	</g>
	<g transform="matrix(1.06897,0,0,1.06897,-29.7347,-25.25)">
		<g id="Layer2">
			<circle fill="#FEF102" cx="1359.9" cy="1337.5" r="1067.2"/>
		</g>
	</g>
	<g transform="matrix(1,0,0,1,0.208873,-2)">
		<path d="M1965.2,977c-24.3-64.7-48.5-177.9-121.3-210.2c-88.9-32.3-145.5,194-161.7,250.6h-16.2c-24.3-97-56.6-234.5-161.7-266.8
			c-48.5,210.2,48.5,436.6,145.5,614.4c105.1-48.5,153.6-202.1,161.7-307.2h16.2l105.1,323.4c88.9-24.3,113.2-113.2,145.5-185.9
			c64.7-161.7,121.3-371.9,80.8-549.7C2029.9,677.9,1997.5,863.8,1965.2,977 M679.8,1405.5c113.2-56.6,169.8-226.4,185.9-347.6h16.2
			c16.2,56.6,48.5,202.1,121.3,218.3c88.9,8.1,137.4-194,145.5-250.6h16.2c32.3,97,56.6,234.5,161.7,283
			c40.4-153.6-8.1-323.4-64.7-468.9c-16.2-40.4-48.5-137.4-97-137.4c-80.8,0-129.4,226.4-145.5,283h-16.2L898,661.7
			C704,750.7,607,1227.6,679.8,1405.5 M477.7,1567.2c137.4,606.3,784.2,954,1358.2,695.3c210.2-97,380-258.7,477-468.9
			c24.3-56.6,72.8-153.6,48.5-218.3c-32.3-72.8-307.2,48.5-371.9,72.8c-8.1,8.1-16.2,16.2-16.2,24.3l0,0c0,16.2,0,32.3,8.1,40.4
			c8.1,8.1,24.3,16.2,40.4,16.2c48.5,8.1,113.2,8.1,113.2,8.1c-210.2,404.2-776.1,582.1-1172.3,258.7
			C873.8,1922.9,793,1834,744.5,1737c-24.3-48.5-48.5-113.2-97-145.5C598.9,1559.1,534.2,1551,477.7,1567.2z"/>
	</g>
</g>
</svg>
