<?xml version="1.0" encoding="utf-8"?>
<!-- Generator: Adobe Illustrator 18.0.0, SVG Export Plug-In . SVG Version: 6.00 Build 0)  -->
<!DOCTYPE svg PUBLIC "-//W3C//DTD SVG 1.1//EN" "http://www.w3.org/Graphics/SVG/1.1/DTD/svg11.dtd">
<svg version="1.1" id="Layer_1" xmlns="http://www.w3.org/2000/svg" xmlns:xlink="http://www.w3.org/1999/xlink" x="0px" y="0px"
	 viewBox="0 0 500 500" enable-background="new 0 0 500 500" xml:space="preserve">
<g>
	<circle fill="#31CA9D" cx="250" cy="250" r="245"/>
	<g>
		<path fill="#FFFFFF" d="M137.9,168.5c3-8.1,10.1-12.4,16.4-17.5c22.5-18.2,45.1-36.3,67.7-54.5c4.5-3.6,8.3-3.7,10.7-0.1
			c1.3,1.8,1.4,3.8,0.9,5.9c-10,48.9-19.9,97.8-30,146.6c-1.6,7.6,1,14.5,2.4,21.5c9,45,18.2,89.9,27.5,134.9c0.7,3.5,0.1,6.4-3,8.3
			c-3,1.9-5.5,0.4-7.9-1.5c-25.5-20.5-50.9-41-76.5-61.5c-3.7-2.9-5.9-6.7-8.3-10.5C137.9,282.9,137.9,225.7,137.9,168.5z"/>
		<path fill="#FFFFFF" d="M269.7,86.4c28.5,20.9,57,41.7,85.5,62.6c4.9,3.6,4.5,8.6-0.8,11.6c-40.7,22.5-81.4,44.9-122.1,67.4
			c-0.3,0.2-0.8,0.3-1.7,0.5c2.1-9.7,4.2-19,6.3-28.4c7.9-35.4,15.8-70.7,23.7-106.1c0.7-3.3,2.1-5.9,5-7.6
			C267,86.4,268.3,86.4,269.7,86.4z"/>
		<path fill="#FFFFFF" d="M234.8,250.1c5-2.8,9.9-5.7,14.9-8.5c35.8-20.1,71.8-40.2,107.5-60.5c6.8-3.9,12.2-0.6,12.2,7.2
			c-0.3,41.4-0.2,82.9-0.2,124.3c0,8.7-4.4,11.3-11.9,7.1c-40-22.4-79.9-44.9-119.8-67.3C236.6,251.8,235.5,251.6,234.8,250.1z"/>
		<path fill="#FFFFFF" d="M231,275.7c14.9,8.2,29.5,16.3,44.1,24.3c26,14.3,51.9,28.6,77.9,43c7.3,4,7.6,8.5,0.9,13.4
			C326.9,376.2,300,396,273,415.7c-5.7,4.2-10.6,2.5-12.1-4.2c-10.1-44.8-20-89.6-30-134.3C230.8,276.9,230.9,276.6,231,275.7z"/>
	</g>
</g>
</svg>
