<?xml version="1.0" encoding="utf-8"?>
<!-- Generator: Adobe Illustrator 18.0.0, SVG Export Plug-In . SVG Version: 6.00 Build 0)  -->
<!DOCTYPE svg PUBLIC "-//W3C//DTD SVG 1.0//EN" "http://www.w3.org/TR/2001/REC-SVG-20010904/DTD/svg10.dtd">
<svg version="1.0" id="Layer_1" xmlns="http://www.w3.org/2000/svg" xmlns:xlink="http://www.w3.org/1999/xlink" x="0px" y="0px"
	 viewBox="0 0 64 64" enable-background="new 0 0 64 64" xml:space="preserve">
<g>
	<g>
		<path fill="#00855D" d="M31.9,63.9C15.3,64.3-0.2,50.1,0.2,31c0.3-16.8,14.8-31,32-30.9c18.3,0.1,31.8,15.1,31.7,32.3
			C63.8,49.5,49.3,64.3,31.9,63.9z M7.4,39.2c0.1,1.2,0.1,2.1,0.3,2.8c1,4.4,4.7,7.4,9.7,7.9c0.8,0.1,1.6,0.5,2.3,1
			c1.5,1,2.8,2.2,4.3,3.1c4.9,3,9.6,2.8,13.8-1.2c4.5-4.2,9.3-7.7,14.8-10.4c4.3-2.1,6.2-6.9,4.3-11.4c-1.1-2.6-1.6-4.8-0.6-7.4
			c0.1-0.3,0.2-0.6,0.2-1c0.6-3.6-1.1-6.6-4.3-7.5c-0.7-0.2-1.5-0.3-2.2-0.4c-4-0.7-8-1.2-11.5-3.6c-1-0.7-2.3-1.1-3.5-1.6
			c-3.6-1.5-6.9-1.1-9.7,1.7c-0.4,0.4-1.1,0.7-1.6,0.7c-6-0.5-9.9,2.1-11,8.1c-1,5.2-2,10.3-4.3,15.2C7.6,36.6,7.6,38.2,7.4,39.2z"
			/>
		<path fill="#00855D" d="M18.6,32.1c0-7.2,5.7-13.1,12.7-13.1c7.2,0,12.9,5.9,12.9,13.3c0,7.1-5.8,13-12.8,13
			C24.2,45.2,18.6,39.5,18.6,32.1z"/>
	</g>
</g>
</svg>
