<?xml version="1.0"?>
<svg xmlns="http://www.w3.org/2000/svg" id="Layer_1" data-name="Layer 1" viewBox="0 0 512 512" width="512" height="512"><title>Japanese Yen</title><path d="M256,414.891c87.613,0,158.891-71.278,158.891-158.891S343.613,97.109,256,97.109,97.109,168.387,97.109,256,168.387,414.891,256,414.891ZM192.4,166.084a6,6,0,0,1,8.4,1.2l55.2,73.6,55.2-73.6a6,6,0,1,1,9.6,7.2l-58.8,78.4V270h29.116a6,6,0,0,1,0,12H262v18h29.116a6,6,0,0,1,0,12H262v29.116a6,6,0,0,1-12,0V312H220.884a6,6,0,0,1,0-12H250V282H220.884a6,6,0,0,1,0-12H250V252.884l-58.8-78.4A6,6,0,0,1,192.4,166.084Z"/></svg>
