<svg id="Layer_1" enable-background="new 0 0 512 512" height="512" viewBox="0 0 512 512" width="512" xmlns="http://www.w3.org/2000/svg"><g><path d="m256 90.25c-91.395 0-165.75 74.355-165.75 165.75s74.355 165.75 165.75 165.75 165.75-74.355 165.75-165.75-74.355-165.75-165.75-165.75zm60.25 135.688c8.284 0 15 6.716 15 15s-6.716 15-15 15h-45.25v30.25h45.25c8.284 0 15 6.716 15 15s-6.716 15-15 15h-45.25v45.25c0 8.284-6.716 15-15 15s-15-6.716-15-15v-45.25h-45.25c-8.284 0-15-6.716-15-15s6.716-15 15-15h45.25v-30.25h-45.25c-8.284 0-15-6.716-15-15s6.716-15 15-15h32.222l-44.703-67.055c-4.595-6.893-2.732-16.206 4.161-20.801 6.891-4.595 16.205-2.733 20.801 4.161l47.769 71.653 47.769-71.654c4.596-6.894 13.91-8.754 20.801-4.161 6.893 4.596 8.756 13.909 4.161 20.801l-44.703 67.055h32.222z"/><path d="m437.02 74.98c-48.353-48.351-112.64-74.98-181.02-74.98s-132.667 26.629-181.02 74.98c-48.351 48.353-74.98 112.64-74.98 181.02s26.629 132.667 74.98 181.02c48.353 48.351 112.64 74.98 181.02 74.98s132.667-26.629 181.02-74.98c48.351-48.353 74.98-112.64 74.98-181.02s-26.629-132.667-74.98-181.02zm-181.02 376.77c-107.937 0-195.75-87.813-195.75-195.75s87.813-195.75 195.75-195.75 195.75 87.813 195.75 195.75-87.813 195.75-195.75 195.75z"/></g></svg>