<svg id="Layer_1" data-name="Layer 1" xmlns="http://www.w3.org/2000/svg" viewBox="0 0 1000 1000"><defs><style>.cls-1{fill:#101c31;}</style></defs><title>Artboard 1 copy 3</title><path class="cls-1" d="M337.23,502.41H254.12V495h83.11a6.34,6.34,0,0,0,6.25-5.27A41.56,41.56,0,0,0,344,482a.47.47,0,0,0-.48-.44H301.09v-7.39h42.47a7.9,7.9,0,0,1,7.87,7.7,48.21,48.21,0,0,1-.66,9.18A13.74,13.74,0,0,1,337.23,502.41Z"/><path class="cls-1" d="M376.88,567.86H236a23.19,23.19,0,0,1-23.16-23.16,50.42,50.42,0,0,1,34.67-48,283.08,283.08,0,0,0,32.34-13.16l34.65-16.31a128,128,0,0,1,54.19-12.12h51v7.4h-51a120.7,120.7,0,0,0-51,11.41L283,490.24a289.43,289.43,0,0,1-33.17,13.49,43.05,43.05,0,0,0-29.6,41A15.79,15.79,0,0,0,236,560.46H376.88Z"/><rect class="cls-1" x="216.49" y="536.68" width="207.06" height="7.4"/><rect class="cls-1" x="334.66" y="432.14" width="54.3" height="7.4"/><rect class="cls-1" x="358.21" y="494.3" width="62.44" height="7.4"/><rect class="cls-1" x="254.45" y="455.12" width="42.56" height="7.4"/><rect class="cls-1" x="407.03" y="432.14" width="12.59" height="7.4"/><rect class="cls-1" x="434.67" y="494.3" width="10.28" height="7.4"/><path class="cls-1" d="M498.3,521.92,461,470.3v51.62h-7.31V462h9.37L500,513V462h7.31v59.95Z"/><path class="cls-1" d="M545.5,522.48c-22.76,0-28.38-14.05-28.38-30.54s5.81-30.54,28.38-30.54C568.36,461.4,574,475.46,574,492,574,508.43,568.36,522.48,545.5,522.48Zm0-55c-16.86,0-21,10.87-21,24.45s4.12,24.45,21,24.45c17,0,21.08-10.87,21.08-24.35C566.58,478.36,562.55,467.49,545.5,467.49Z"/><path class="cls-1" d="M581.1,521.92V514.8L616.5,468H581.19v-6h43.46v6.74L588.4,515.92h37.28v6Z"/><path class="cls-1" d="M661,522.48c-22.76,0-28.38-14.05-28.38-30.54S638.42,461.4,661,461.4c22.86,0,28.48,14.06,28.48,30.64C689.47,508.43,683.85,522.48,661,522.48Zm0-55c-16.86,0-21,10.87-21,24.45s4.12,24.45,21,24.45c17,0,21.08-10.87,21.08-24.35C682.07,478.36,678,467.49,661,467.49Z"/><path class="cls-1" d="M760.47,521.92V471l-23.33,51h-7.21l-23.42-51v51h-7.3V462h11l23.41,52.08L756.72,462h11.15v59.95Z"/><path class="cls-1" d="M779.48,521.92V462h7.31v59.95Z"/><path class="cls-1" d="M462.63,542.21h-2.09l.82-3.91h-3.72l-.84,3.91h-2.11l2-9.3h2.11l-.8,3.72h3.73l.78-3.72h2.11Z"/><path class="cls-1" d="M469,542.21h-2.11l2-9.3h2.1Z"/><path class="cls-1" d="M480.67,536c0-.91-.32-1.47-1.69-1.47-2,0-2.61,1.36-3,3s-.29,3.05,1.46,3.05a2.65,2.65,0,0,0,2.66-2h-2.37l.35-1.68h4.49l-1.13,5.31h-.92l-.2-1.47a3.85,3.85,0,0,1-3.12,1.58c-3.4,0-3.84-2.44-3.32-4.94s1.79-4.59,5.23-4.59c2.75,0,3.78,1.2,3.66,3.19Z"/><path class="cls-1" d="M493.5,542.21h-2.09l.82-3.91h-3.72l-.84,3.91h-2.11l2-9.3h2.11l-.8,3.72h3.73l.78-3.72h2.11Z"/><path class="cls-1" d="M510.28,536.08c.1-1-.28-1.54-1.57-1.54s-1.95.46-2,1.19c0,1.36,5.67.29,4.92,3.85-.28,1.29-1.28,2.74-4.13,2.74s-4-1.12-3.73-3.44h2.05c-.12,1.09.31,1.73,1.67,1.73s1.9-.39,2.11-1.08c.59-1.91-5.28-.52-4.94-3.89.16-1.6,1.47-2.85,4.17-2.85s3.66,1.22,3.44,3.29Z"/><path class="cls-1" d="M519.5,539.23h-1.57l-.63,3h-2.1l2-9.3h3.34c3.7,0,3.62,2,3.34,3.27S523.07,539.23,519.5,539.23Zm.94-4.61h-1.53l-.64,3h1.33a1.91,1.91,0,0,0,2.16-1.56C521.9,535.38,521.88,534.62,520.44,534.62Z"/><path class="cls-1" d="M534.73,534.62h-4.52l-.43,2h4.08l-.37,1.67h-4.06l-.48,2.19h4.54l-.36,1.72h-6.62l2-9.3h6.61Z"/><path class="cls-1" d="M545.24,534.62h-4.52l-.43,2h4.08L544,538.3h-4.06l-.48,2.19H544l-.36,1.72H537l2-9.3h6.61Z"/><path class="cls-1" d="M551.09,542.21h-3.56l2-9.3h3.54c2.88,0,4.07,1.8,3.43,4.79A5.2,5.2,0,0,1,551.09,542.21Zm1.31-7.59h-1.17L550,540.49h.9c1.9,0,3.12-.62,3.61-3S554.27,534.62,552.4,534.62Z"/><path class="cls-1" d="M572.14,542.21l-.68-1a5.17,5.17,0,0,1-3,1.12c-2.58,0-3.29-1.45-3-3,.25-1.37,1.24-2.1,2.76-2.52l-1.29-1.9.32-2h6.36l-.36,1.74h-4.13l2.47,3.62a17.26,17.26,0,0,0,.63-2.22h2a12.15,12.15,0,0,1-1.45,3.73l1.76,2.43Zm-3-4c-1.11.19-1.56.67-1.69,1.25s.19,1.13,1.09,1.13a3.68,3.68,0,0,0,1.93-.59Z"/><path class="cls-1" d="M588.46,538.69l2.65,3.52h-2.65l-2.26-3.77-.8,3.77h-2.11l2-9.3h3.34c3.59,0,3.63,1.89,3.37,3.11A3.28,3.28,0,0,1,588.46,538.69Zm.08-4.07H587l-.56,2.62h1.32c1.48,0,2-.74,2.13-1.38S589.92,534.62,588.54,534.62Z"/><path class="cls-1" d="M602.83,534.62h-4.52l-.44,2H602l-.36,1.67h-4.07l-.47,2.19h4.54l-.36,1.72h-6.62l2-9.3h6.61Z"/><path class="cls-1" d="M610.42,542.21h-5.26l2-9.3h2.11l-1.63,7.58h3.17Z"/><path class="cls-1" d="M616.1,542.21H614l2-9.3h2.1Z"/><path class="cls-1" d="M626.64,542.21l-.15-1.66h-4l-.88,1.66h-2.28l5.31-9.3h2.84l1.25,9.3Zm-.86-7.69-2.44,4.53h3Z"/><path class="cls-1" d="M638.75,537.4a1.83,1.83,0,0,1,1.45,2.24c-.29,1.48-1.5,2.57-4.4,2.57h-3.73l2-9.3h3.45c2.76,0,3.54,1.15,3.26,2.63A2.25,2.25,0,0,1,638.75,537.4Zm-2,.84H635l-.49,2.25H636c1.44,0,1.88-.45,2-1.15S638.2,538.24,636.74,538.24Zm.67-3.62h-1.62l-.45,2.07h1.4c1.37,0,1.78-.42,1.91-1.05S638.78,534.62,637.41,534.62Z"/><path class="cls-1" d="M648.71,542.21h-5.26l2-9.3h2.11l-1.63,7.58h3.17Z"/><path class="cls-1" d="M660.5,534.62H656l-.43,2h4.08l-.36,1.67H655.2l-.48,2.19h4.55l-.37,1.72h-6.62l2-9.3h6.61Z"/><path class="cls-1" d="M671.94,542.21h-3.56l2-9.3h3.54c2.88,0,4.07,1.8,3.43,4.79A5.2,5.2,0,0,1,671.94,542.21Zm1.31-7.59h-1.16l-1.25,5.87h.9c1.9,0,3.12-.62,3.61-3S675.12,534.62,673.25,534.62Z"/><path class="cls-1" d="M686.23,542.21l-.15-1.66h-4l-.88,1.66h-2.28l5.31-9.3h2.84l1.24,9.3Zm-.86-7.69-2.44,4.53h3Z"/><path class="cls-1" d="M698.33,534.62h-2.42l-1.61,7.59h-2.06l1.6-7.59h-2.41l.36-1.71h6.9Z"/><path class="cls-1" d="M705.57,542.21l-.14-1.66h-4l-.89,1.66h-2.28l5.32-9.3h2.83l1.25,9.3Zm-.86-7.69-2.44,4.53h3Z"/><path class="cls-1" d="M720.89,539.23h-1.57l-.62,3h-2.11l2-9.3h3.34c3.7,0,3.61,2,3.34,3.27S724.46,539.23,720.89,539.23Zm.94-4.61h-1.52l-.64,3H721a1.92,1.92,0,0,0,2.17-1.56C723.3,535.38,723.27,534.62,721.83,534.62Z"/><path class="cls-1" d="M732.29,542.32c-3.74,0-4.21-2.47-3.69-5s1.71-4.54,5.27-4.54c3.73,0,4.2,2.43,3.65,5S735.89,542.32,732.29,542.32Zm1.46-7.81c-2.06,0-2.68,1.31-3,3s-.21,3.11,1.66,3.11c2.11,0,2.7-1.37,3.07-3S735.69,534.51,733.75,534.51Z"/><path class="cls-1" d="M745.85,542.21h-5.26l2-9.3h2.11L743,540.49h3.17Z"/><path class="cls-1" d="M754.72,542.21h-5.26l2-9.3h2.11l-1.63,7.58h3.17Z"/><path class="cls-1" d="M760.4,542.21h-2.11l2-9.3h2.1Z"/><path class="cls-1" d="M766.7,532.91h2.48l2.65,6.48,1.38-6.48h2.1l-2,9.3h-2.4l-2.74-6.53-1.38,6.53h-2.11Z"/><path class="cls-1" d="M785.07,536c0-.91-.32-1.47-1.69-1.47-2,0-2.61,1.36-3,3s-.29,3.05,1.46,3.05a2.65,2.65,0,0,0,2.66-2h-2.37l.35-1.68H787l-1.13,5.31H785l-.2-1.47a3.85,3.85,0,0,1-3.12,1.58c-3.4,0-3.84-2.44-3.31-4.94s1.78-4.59,5.22-4.59c2.75,0,3.78,1.2,3.66,3.19Z"/><path class="cls-1" d="M461.88,559.63l-.68-1a5.17,5.17,0,0,1-3,1.12c-2.57,0-3.28-1.46-3-3,.24-1.36,1.23-2.09,2.76-2.51l-1.3-1.9.32-2h6.36l-.36,1.75h-4.12l2.47,3.61a17.29,17.29,0,0,0,.62-2.22h2a11.92,11.92,0,0,1-1.46,3.73l1.76,2.43Zm-3-4c-1.1.18-1.55.66-1.68,1.24s.19,1.14,1.09,1.14a3.72,3.72,0,0,0,1.93-.6Z"/><path class="cls-1" d="M479.3,559.63l-.14-1.66h-4l-.89,1.66H472l5.32-9.3h2.83l1.25,9.3Zm-.85-7.68L476,556.48h3Z"/><path class="cls-1" d="M491.85,553.4c0-.9-.32-1.47-1.69-1.47-2,0-2.61,1.37-3,3.05s-.29,3,1.46,3a2.65,2.65,0,0,0,2.66-2h-2.37l.35-1.67h4.49l-1.13,5.3h-.92l-.2-1.47a3.84,3.84,0,0,1-3.12,1.59c-3.4,0-3.84-2.44-3.31-4.94s1.78-4.59,5.22-4.59c2.75,0,3.78,1.19,3.66,3.18Z"/><path class="cls-1" d="M504.29,553.4c0-.9-.32-1.47-1.68-1.47-2,0-2.62,1.37-3,3.05s-.29,3,1.47,3a2.65,2.65,0,0,0,2.66-2h-2.37l.35-1.67h4.48l-1.13,5.3h-.91l-.21-1.47a3.83,3.83,0,0,1-3.12,1.59c-3.4,0-3.83-2.44-3.31-4.94s1.79-4.59,5.23-4.59c2.74,0,3.77,1.19,3.66,3.18Z"/><path class="cls-1" d="M514.46,556.12l2.64,3.51h-2.64l-2.27-3.76-.8,3.76h-2.1l2-9.3h3.34c3.59,0,3.63,1.89,3.37,3.11A3.28,3.28,0,0,1,514.46,556.12Zm.07-4.07H513l-.56,2.61h1.32c1.48,0,2-.74,2.13-1.38S515.91,552.05,514.53,552.05Z"/><path class="cls-1" d="M528.82,552.05H524.3l-.44,2H528l-.37,1.67h-4.06l-.48,2.2h4.54l-.36,1.71H520.6l2-9.3h6.61Z"/><path class="cls-1" d="M538.27,553.4c0-.9-.32-1.47-1.68-1.47-2,0-2.62,1.37-3,3.05s-.29,3,1.46,3a2.65,2.65,0,0,0,2.66-2h-2.36l.34-1.67h4.49l-1.13,5.3h-.92l-.2-1.47a3.84,3.84,0,0,1-3.12,1.59c-3.4,0-3.84-2.44-3.31-4.94s1.78-4.59,5.23-4.59c2.74,0,3.77,1.19,3.65,3.18Z"/><path class="cls-1" d="M549.54,559.63l-.15-1.66h-4l-.88,1.66h-2.28l5.31-9.3h2.83l1.25,9.3Zm-.86-7.68-2.44,4.53h3Z"/><path class="cls-1" d="M561.63,552.05h-2.41l-1.61,7.58h-2.06l1.6-7.58h-2.42l.37-1.72H562Z"/><path class="cls-1" d="M565.62,559.63h-2.1l2-9.3h2.11Z"/><path class="cls-1" d="M571.93,550.33h2.48l2.64,6.48,1.38-6.48h2.11l-2,9.3h-2.39l-2.75-6.52L572,559.63h-2.1Z"/><path class="cls-1" d="M590.29,553.4c.05-.9-.31-1.47-1.68-1.47-2,0-2.61,1.37-3,3.05s-.29,3,1.47,3a2.65,2.65,0,0,0,2.66-2h-2.37l.35-1.67h4.49l-1.14,5.3h-.91l-.2-1.47a3.86,3.86,0,0,1-3.13,1.59c-3.4,0-3.83-2.44-3.31-4.94s1.79-4.59,5.23-4.59c2.74,0,3.78,1.19,3.66,3.18Z"/><path class="cls-1" d="M609.1,552.05h-4.52l-.43,2h4.08l-.36,1.67H603.8l-.48,2.2h4.55l-.37,1.71h-6.62l2-9.3h6.61Z"/><path class="cls-1" d="M613.43,550.33h2.48l2.64,6.48,1.38-6.48H622l-2,9.3h-2.39l-2.75-6.52-1.38,6.52h-2.1Z"/><path class="cls-1" d="M631.79,553.4c.05-.9-.32-1.47-1.68-1.47-2,0-2.61,1.37-3,3.05s-.29,3,1.47,3a2.65,2.65,0,0,0,2.66-2h-2.37l.35-1.67h4.49l-1.14,5.3h-.91l-.21-1.47a3.83,3.83,0,0,1-3.12,1.59c-3.4,0-3.83-2.44-3.31-4.94s1.79-4.59,5.23-4.59c2.74,0,3.77,1.19,3.66,3.18Z"/><path class="cls-1" d="M638.89,559.63h-2.1l2-9.3h2.11Z"/><path class="cls-1" d="M645.19,550.33h2.49l2.64,6.48,1.38-6.48h2.11l-2,9.3h-2.39l-2.75-6.52-1.38,6.52H643.2Z"/><path class="cls-1" d="M664.33,552.05h-4.51l-.44,2h4.08l-.36,1.67H659l-.48,2.2h4.55l-.36,1.71h-6.63l2-9.3h6.61Z"/></svg>